<svg xmlns="http://www.w3.org/2000/svg" width="32" height="32.541" viewBox="0 0 32 32.541"><defs><style>.a{fill:#fff;}</style></defs><path class="a" d="M29.188,3.813H28.25V2.86a2.813,2.813,0,1,0-5.625,0v.953h-3.75V2.86a2.813,2.813,0,1,0-5.625,0v.953H9.375V2.86a2.813,2.813,0,1,0-5.625,0v.953H2.813A2.84,2.84,0,0,0,0,6.673V29.681a2.84,2.84,0,0,0,2.813,2.86H29.188A2.84,2.84,0,0,0,32,29.681V6.673A2.84,2.84,0,0,0,29.188,3.813ZM24.5,2.86a.938.938,0,1,1,1.875,0V6.673a.938.938,0,1,1-1.875,0Zm-9.375,0A.938.938,0,1,1,17,2.86V6.673a.938.938,0,1,1-1.875,0Zm-9.5,0a.938.938,0,1,1,1.875,0V6.673a.938.938,0,1,1-1.875,0Zm24.5,26.821a.947.947,0,0,1-.937.953H2.813a.947.947,0,0,1-.937-.953V13.474h28.25Zm0-18.114H1.875V6.673a.947.947,0,0,1,.938-.953H3.75v.953a2.813,2.813,0,1,0,5.625,0V5.72H13.25v.953a2.813,2.813,0,1,0,5.625,0V5.72h3.75v.953a2.813,2.813,0,1,0,5.625,0V5.72h.938a.947.947,0,0,1,.937.953Z"/><g transform="translate(3.813 15.381)"><path class="a" d="M83.441,242H60.933a.943.943,0,0,0-.933.953v11.44a.943.943,0,0,0,.933.953H83.441a.943.943,0,0,0,.933-.953v-11.44A.943.943,0,0,0,83.441,242ZM65.6,253.44H61.865v-3.813H65.6Zm0-5.72H61.865v-3.813H65.6Zm5.72,5.72H67.461v-3.813h3.855Zm0-5.72H67.461v-3.813h3.855Zm5.6,5.72H73.181v-3.813h3.731Zm0-5.72H73.181v-3.813h3.731Zm5.6,5.72H78.777v-3.813h3.731Zm0-5.72H78.777v-3.813h3.731Z" transform="translate(-60 -242)"/></g></svg>