<svg xmlns="http://www.w3.org/2000/svg" xmlns:xlink="http://www.w3.org/1999/xlink" width="304.012" height="180.19" viewBox="0 0 304.012 180.19"><defs><style>.a{fill:#fff;}.b{filter:url(#w);}.c{filter:url(#u);}.d{filter:url(#s);}.e{filter:url(#q);}.f{filter:url(#o);}.g{filter:url(#m);}.h{filter:url(#k);}.i{filter:url(#i);}.j{filter:url(#g);}.k{filter:url(#e);}.l{filter:url(#c);}.m{filter:url(#a);}</style><filter id="a" x="42.151" y="106.311" width="37.976" height="42.05" filterUnits="userSpaceOnUse"><feOffset dy="3" input="SourceAlpha"/><feGaussianBlur stdDeviation="3" result="b"/><feFlood flood-opacity="0.4"/><feComposite operator="in" in2="b"/><feComposite in="SourceGraphic"/></filter><filter id="c" x="64.843" y="95.401" width="29.663" height="52.737" filterUnits="userSpaceOnUse"><feOffset dy="3" input="SourceAlpha"/><feGaussianBlur stdDeviation="3" result="d"/><feFlood flood-opacity="0.4"/><feComposite operator="in" in2="d"/><feComposite in="SourceGraphic"/></filter><filter id="e" x="78.136" y="105.975" width="41.53" height="42.506" filterUnits="userSpaceOnUse"><feOffset dy="3" input="SourceAlpha"/><feGaussianBlur stdDeviation="3" result="f"/><feFlood flood-opacity="0.4"/><feComposite operator="in" in2="f"/><feComposite in="SourceGraphic"/></filter><filter id="g" x="104.398" y="106.471" width="40.479" height="41.616" filterUnits="userSpaceOnUse"><feOffset dy="3" input="SourceAlpha"/><feGaussianBlur stdDeviation="3" result="h"/><feFlood flood-opacity="0.4"/><feComposite operator="in" in2="h"/><feComposite in="SourceGraphic"/></filter><filter id="i" x="129.878" y="95.551" width="40.546" height="52.561" filterUnits="userSpaceOnUse"><feOffset dy="3" input="SourceAlpha"/><feGaussianBlur stdDeviation="3" result="j"/><feFlood flood-opacity="0.4"/><feComposite operator="in" in2="j"/><feComposite in="SourceGraphic"/></filter><filter id="k" x="169.094" y="98.452" width="35.902" height="49.561" filterUnits="userSpaceOnUse"><feOffset dy="3" input="SourceAlpha"/><feGaussianBlur stdDeviation="3" result="l"/><feFlood flood-opacity="0.4"/><feComposite operator="in" in2="l"/><feComposite in="SourceGraphic"/></filter><filter id="m" x="188.704" y="106.539" width="40.686" height="41.575" filterUnits="userSpaceOnUse"><feOffset dy="3" input="SourceAlpha"/><feGaussianBlur stdDeviation="3" result="n"/><feFlood flood-opacity="0.4"/><feComposite operator="in" in2="n"/><feComposite in="SourceGraphic"/></filter><filter id="o" x="214.83" y="95.352" width="29.675" height="52.737" filterUnits="userSpaceOnUse"><feOffset dy="3" input="SourceAlpha"/><feGaussianBlur stdDeviation="3" result="p"/><feFlood flood-opacity="0.4"/><feComposite operator="in" in2="p"/><feComposite in="SourceGraphic"/></filter><filter id="q" x="228.803" y="95.333" width="38.531" height="52.988" filterUnits="userSpaceOnUse"><feOffset dy="3" input="SourceAlpha"/><feGaussianBlur stdDeviation="3" result="r"/><feFlood flood-opacity="0.4"/><feComposite operator="in" in2="r"/><feComposite in="SourceGraphic"/></filter><filter id="s" x="190.762" y="19.058" width="85.089" height="66.57" filterUnits="userSpaceOnUse"><feOffset dy="3" input="SourceAlpha"/><feGaussianBlur stdDeviation="3" result="t"/><feFlood flood-opacity="0.4"/><feComposite operator="in" in2="t"/><feComposite in="SourceGraphic"/></filter><filter id="u" x="33.24" y="0" width="158.725" height="85.333" filterUnits="userSpaceOnUse"><feOffset dy="3" input="SourceAlpha"/><feGaussianBlur stdDeviation="3" result="v"/><feFlood flood-opacity="0.4"/><feComposite operator="in" in2="v"/><feComposite in="SourceGraphic"/></filter><filter id="w" x="0" y="88.314" width="304.012" height="91.877" filterUnits="userSpaceOnUse"><feOffset dy="3" input="SourceAlpha"/><feGaussianBlur stdDeviation="3" result="x"/><feFlood flood-opacity="0.4"/><feComposite operator="in" in2="x"/><feComposite in="SourceGraphic"/></filter></defs><g transform="translate(9 5.982)"><g transform="translate(0 0.018)"><g class="m" transform="matrix(1, 0, 0, 1, -9, -6)"><path class="a" d="M41.958,98.467a3.69,3.69,0,0,0,1.23,2.952,3.8,3.8,0,0,0,2.534,1.046,4.293,4.293,0,0,0,2.46-.824,3.69,3.69,0,0,1,1.894-.824q1.23,0,3.112,2.374a4.022,4.022,0,0,1,.984,2.325q0,1.7-2.349,3.173a9.84,9.84,0,0,1-5.941,1.808,11.956,11.956,0,0,1-7.638-2.989,10.566,10.566,0,0,1-2.866-3.825,12.3,12.3,0,0,1-1.107-5.277,12.066,12.066,0,0,1,1.107-5.227A10.664,10.664,0,0,1,38.243,89.4,11.623,11.623,0,0,1,45.8,86.45a10.762,10.762,0,0,1,3.161.467,10.3,10.3,0,0,1,2.263.923l.689.443,1.23.849a2.583,2.583,0,0,1,1.107,2.029,4.92,4.92,0,0,1-.9,2.571q-1.537,2.46-2.94,2.46a4.822,4.822,0,0,1-2.3-.984,3,3,0,0,0-2.2-.763,4,4,0,0,0-2.669,1.07,3.69,3.69,0,0,0-1.279,2.952Z" transform="translate(16.88 25.86)"/></g><g class="l" transform="matrix(1, 0, 0, 1, -9, -6)"><path class="a" d="M52.745,81.577a13.531,13.531,0,0,1,.062-1.537,4.28,4.28,0,0,1,.369-1.23q.6-1.23,3.333-1.23t3.247,1.23a3.69,3.69,0,0,1,.406,1.23,14.29,14.29,0,0,1,.062,1.562v20.713a4.92,4.92,0,0,0,.221,2.029q.258.43,1.132.431a6.57,6.57,0,0,1,1.23.062,2.115,2.115,0,0,1,.726.381q.849.578.849,3.173,0,2.817-.849,3.444-1.107.8-5.289.271-3.284-.443-4.268-2.275a15.264,15.264,0,0,1-1.23-6.974Z" transform="translate(21.13 23.82)"/></g><g class="k" transform="matrix(1, 0, 0, 1, -9, -6)"><path class="a" d="M67.16,89.65a11.353,11.353,0,0,1,16.347,0,11.82,11.82,0,0,1,3.542,8.831,12.017,12.017,0,0,1-1.833,6.593,11.55,11.55,0,0,1-9.9,5.609,11.218,11.218,0,0,1-5.461-1.451,12.3,12.3,0,0,1-4.514-4.268,11.648,11.648,0,0,1-1.808-6.408A11.82,11.82,0,0,1,67.16,89.65ZM72.5,101.691a4.416,4.416,0,0,0,2.78,1.095,4.526,4.526,0,0,0,2.817-1.119A4.637,4.637,0,0,0,78.18,95.1a4.453,4.453,0,0,0-2.866-1.07,4.354,4.354,0,0,0-2.866,1.119,4.059,4.059,0,0,0-1.328,3.284A3.924,3.924,0,0,0,72.5,101.74Z" transform="translate(23.61 25.8)"/></g><g class="j" transform="matrix(1, 0, 0, 1, -9, -6)"><path class="a" d="M94.869,110.122a8.9,8.9,0,0,1-7.146-3.419,12.62,12.62,0,0,1-2.841-8.339V90.541a13.527,13.527,0,0,1,.148-1.562,4.305,4.305,0,0,1,.369-1.156q.6-1.23,3.333-1.23,2.989,0,3.505,1.7a7.38,7.38,0,0,1,.172,2.3v7.823a3.924,3.924,0,0,0,1.009,2.866,3.579,3.579,0,0,0,2.694,1.033,3.69,3.69,0,0,0,2.731-1.07,3.862,3.862,0,0,0,1.045-2.817V90.5a13.653,13.653,0,0,1,.062-1.538,3.69,3.69,0,0,1,.406-1.23q.553-1.156,3.284-1.156t3.284,1.23a4.317,4.317,0,0,1,.369,1.23,13.653,13.653,0,0,1,.062,1.538V106.4a13.1,13.1,0,0,1-.062,1.5,3.284,3.284,0,0,1-.406,1.144q-.64,1.168-3.284,1.156t-3.2-1.07a3.69,3.69,0,0,1-.43-1.833,4.489,4.489,0,0,1-.763.9,10.66,10.66,0,0,1-1.156.984A5.523,5.523,0,0,1,94.869,110.122Z" transform="translate(28.52 25.89)"/></g><g class="i" transform="matrix(1, 0, 0, 1, -9, -6)"><path class="a" d="M121.112,78.893a1.833,1.833,0,0,1,1.132-.922,8.807,8.807,0,0,1,4.317,0,1.808,1.808,0,0,1,1.132.935,3.96,3.96,0,0,1,.381,1.23,13.533,13.533,0,0,1,.062,1.538v26.679a13.54,13.54,0,0,1-.061,1.538,3.272,3.272,0,0,1-.406,1.144q-.64,1.23-3.6,1.23t-3.309-2.214a6.15,6.15,0,0,1-4.994,2.14,9.311,9.311,0,0,1-7-3.506,12.165,12.165,0,0,1,0-16.384,9.311,9.311,0,0,1,6.974-3.53,5.879,5.879,0,0,1,4.92,2.239V81.586a13.649,13.649,0,0,1,.062-1.537,3.69,3.69,0,0,1,.394-1.156Zm-6.937,24.292a3.518,3.518,0,0,0,2.694,1.23,3.333,3.333,0,0,0,2.62-1.23,3.973,3.973,0,0,0,1.046-2.657,4.244,4.244,0,0,0-1.009-2.706,3.3,3.3,0,0,0-2.706-1.23,3.383,3.383,0,0,0-2.731,1.23,4.133,4.133,0,0,0-1.021,2.706,3.874,3.874,0,0,0,1.107,2.657Z" transform="translate(33.29 23.85)"/></g><g class="h" transform="matrix(1, 0, 0, 1, -9, -6)"><path class="a" d="M151.651,95.976l-2.78-.185v6.15a3.2,3.2,0,0,0,.357,1.747,1.538,1.538,0,0,0,1.365.541,13.224,13.224,0,0,1,1.537.061,2.952,2.952,0,0,1,1.132.431q.984.578.984,2.989,0,2.817-1.23,3.444a3.838,3.838,0,0,1-1.132.381,11.456,11.456,0,0,1-1.427.062,9.692,9.692,0,0,1-6.74-2.1q-2.3-2.1-2.3-7.109V95.841a10.761,10.761,0,0,1-1.747.135,1.931,1.931,0,0,1-1.562-.763,4.157,4.157,0,0,1-.615-2.6,11.733,11.733,0,0,1,.209-2.657,2.46,2.46,0,0,1,.6-1.23,2.546,2.546,0,0,1,1.71-.578l1.414.184V83.775a12.919,12.919,0,0,1,.062-1.525,2.891,2.891,0,0,1,.406-1.07q.554-1.119,3.284-1.119t3.456,1.648a8.733,8.733,0,0,1,.209,2.275v4.379q1.882-.172,2.841-.185a11.675,11.675,0,0,1,1.451.062,3.333,3.333,0,0,1,1.132.43q1.107.578,1.107,3.444t-1.156,3.444a3.838,3.838,0,0,1-1.132.381A11.833,11.833,0,0,1,151.651,95.976Z" transform="translate(40.62 24.39)"/></g><g class="g" transform="matrix(1, 0, 0, 1, -9, -6)"><path class="a" d="M168.7,89.1q.258-2.46,3.37-2.46a8.475,8.475,0,0,1,2.46.271,1.808,1.808,0,0,1,1.132.935,3.973,3.973,0,0,1,.381,1.23,13.651,13.651,0,0,1,.062,1.537V106.26a13.64,13.64,0,0,1-.061,1.537,4.305,4.305,0,0,1-.369,1.23q-.6,1.168-2.927,1.156a5.535,5.535,0,0,1-3.112-.6,2.46,2.46,0,0,1-.923-1.771,5.867,5.867,0,0,1-5.277,2.374,9.164,9.164,0,0,1-6.851-3.53,11.919,11.919,0,0,1-3.161-8.2,11.8,11.8,0,0,1,3.173-8.3,9.336,9.336,0,0,1,6.974-3.506,6.4,6.4,0,0,1,2.645.541,5.842,5.842,0,0,1,1.66,1.009,6.151,6.151,0,0,1,.824.91Zm-7.774,9.3a3.788,3.788,0,0,0,1.107,2.657,3.555,3.555,0,0,0,2.694,1.23,3.333,3.333,0,0,0,2.62-1.23A3.973,3.973,0,0,0,168.39,98.4a4.243,4.243,0,0,0-1.009-2.706,3.272,3.272,0,0,0-2.694-1.23,3.4,3.4,0,0,0-2.731,1.23,4.157,4.157,0,0,0-1.033,2.706Z" transform="translate(44.29 25.9)"/></g><g class="f" transform="matrix(1, 0, 0, 1, -9, -6)"><path class="a" d="M174.66,81.537A13.53,13.53,0,0,1,174.722,80a4.28,4.28,0,0,1,.369-1.23q.6-1.23,3.333-1.23t3.247,1.23a3.69,3.69,0,0,1,.406,1.23,14.294,14.294,0,0,1,.061,1.562v20.713a4.92,4.92,0,0,0,.258,2.029q.258.431,1.132.431a6.568,6.568,0,0,1,1.23.061,2.115,2.115,0,0,1,.726.381q.849.578.849,3.173,0,2.817-.849,3.444-1.107.8-5.289.271-3.284-.443-4.268-2.276a15.264,15.264,0,0,1-1.23-6.974Z" transform="translate(49.17 23.81)"/></g><g class="e" transform="matrix(1, 0, 0, 1, -9, -6)"><path class="a" d="M199.243,100.446l5.683,4.92a6.875,6.875,0,0,1,1.341,1.427,1.919,1.919,0,0,1,.283.935,5.633,5.633,0,0,1-1.328,2.9q-1.451,1.882-2.558,1.882a4.92,4.92,0,0,1-2.608-1.291l-.431-.308q-.984-.849-3.026-2.977a41.97,41.97,0,0,0-3.112-3.013v3.444a13.643,13.643,0,0,1-.062,1.537,3.69,3.69,0,0,1-.406,1.23q-.554,1.156-3.284,1.156t-3.284-1.23a4.268,4.268,0,0,1-.369-1.23,13.533,13.533,0,0,1-.061-1.537V81.541A13.533,13.533,0,0,1,186.082,80a4.281,4.281,0,0,1,.369-1.23q.6-1.23,3.333-1.23a4.367,4.367,0,0,1,2.9.763,2.583,2.583,0,0,1,.763,1.968V95.748q.763-.677,2.325-2.275T198.1,91.2l.517-.357a4.416,4.416,0,0,1,2.558-1.23q1.07,0,2.46,1.808a5.412,5.412,0,0,1,1.39,2.841,3.823,3.823,0,0,1-1.574,2.46Z" transform="translate(51.78 23.81)"/></g><g class="d" transform="matrix(1, 0, 0, 1, -9, -6)"><path class="a" d="M184.327,55.558A78.72,78.72,0,0,0,161.793,16.58a3.9,3.9,0,0,0-5.683.344,4.354,4.354,0,0,0,.332,5.953,70.307,70.307,0,0,1,20.676,37.786,4.059,4.059,0,0,0,4.059,3.419h27.4a4.108,4.108,0,0,0,4.01-4.194V46.37A14.858,14.858,0,0,0,221.4,27.736a13.9,13.9,0,0,0-17.835-9.163,14.858,14.858,0,0,0-8.77,18.634,14.3,14.3,0,0,0,9.84,9.5v8.881Zm17.737-23.087a6.027,6.027,0,1,1,6.015,6.3,6.15,6.15,0,0,1-6.015-6.3Z" transform="translate(44.67 9.55)"/></g><g class="c" transform="matrix(1, 0, 0, 1, -9, -6)"><path class="a" d="M95.284,13.71C80.02,24.067,69.454,40.5,65.014,58.962H44.768V39.553a14.76,14.76,0,0,0,9.914-17.995,13.985,13.985,0,0,0-17.22-10.381,14.76,14.76,0,0,0-9.914,17.995,14.428,14.428,0,0,0,9.2,10.184v23.8a4.108,4.108,0,0,0,4.01,4.194H68.224a4.059,4.059,0,0,0,4.01-3.395c6.359-32.177,33.37-55.35,64.759-55.35a63.05,63.05,0,0,1,25.2,5.2,3.948,3.948,0,0,0,5.24-2.276,4.268,4.268,0,0,0-2.177-5.486c-20.393-8.794-43.776-8.179-62.951,3.235C100.524,10.316,97.006,12.542,95.284,13.71ZM35.125,25.383a6.027,6.027,0,1,1,12.029,0,6.15,6.15,0,0,1-6.015,6.3h0a6.15,6.15,0,0,1-6.015-6.3Z" transform="translate(15.22 5.98)"/></g><g class="b" transform="matrix(1, 0, 0, 1, -9, -6)"><path class="a" d="M286.012,87.515a60.2,60.2,0,0,0-1.23-12.3,4.133,4.133,0,0,0-4.92-3.309,4.317,4.317,0,0,0-3.112,5.2,51.11,51.11,0,0,1,1.058,10.406c0,27.417-21.23,49.655-47.429,49.655H55.719c-26.2,0-47.429-22.226-47.429-49.655A51.106,51.106,0,0,1,9.348,77.11a4.317,4.317,0,0,0-3.2-5.141,4.133,4.133,0,0,0-4.92,3.309A60.2,60.2,0,0,0,0,87.577c0,30.75,22.792,55.965,51.66,58.117H234.536C263.318,143.382,286.012,118.216,286.012,87.515Z" transform="translate(9 22.5)"/></g></g></g></svg>