<svg xmlns="http://www.w3.org/2000/svg" width="23.753" height="33.782" viewBox="0 0 23.753 33.782"><defs><style>.a{fill:#fff;}</style></defs><g transform="translate(0)"><path class="a" d="M87.877,0a11.879,11.879,0,0,0-10.1,18.122L87.2,33.314a.99.99,0,0,0,.841.468h.008a.99.99,0,0,0,.841-.481l9.187-15.34A11.879,11.879,0,0,0,87.877,0Zm8.5,16.945L88.026,30.891,79.455,17.079a9.9,9.9,0,1,1,16.924-.134Z" transform="translate(-76)"/></g><g transform="translate(5.938 5.938)"><path class="a" d="M171.938,90a5.938,5.938,0,1,0,5.938,5.938A5.945,5.945,0,0,0,171.938,90Zm0,9.91a3.972,3.972,0,1,1,3.965-3.972A3.975,3.975,0,0,1,171.938,99.91Z" transform="translate(-166 -90)"/></g></svg>