<svg xmlns="http://www.w3.org/2000/svg" width="32" height="32" viewBox="0 0 32 32"><defs><style>.a{fill:#fff;}</style></defs><path class="a" d="M15.937,0a16,16,0,0,0,0,32A16.149,16.149,0,0,0,32,15.938,16.036,16.036,0,0,0,15.937,0Zm0,30.138a14.138,14.138,0,1,1,14.2-14.2A14.163,14.163,0,0,1,15.937,30.138Z"/><g transform="translate(15.186 11.337)"><path class="a" d="M244.22,184.6l3.029-3.029a.92.92,0,1,0-1.3-1.3l-3.68,3.68a.92.92,0,0,0,0,1.3l3.68,3.68a.92.92,0,0,0,1.3-1.3Z" transform="translate(-242 -179.999)"/></g><g transform="translate(3.68 3.68)"><path class="a" d="M72.258,60a12.321,12.321,0,0,0,0,24.641,12.321,12.321,0,1,0,0-24.641Zm8.02,18.944-.56-.56a.943.943,0,0,0-1.333,1.333l.56.56A10.467,10.467,0,0,1,73.2,82.71v-.9a.943.943,0,1,0-1.886,0v.9a10.261,10.261,0,0,1-5.675-2.377l.617-.617a.943.943,0,0,0-1.333-1.333L64.311,79a10.518,10.518,0,0,1-2.383-5.8h.9a.943.943,0,0,0,0-1.886h-.9a10.326,10.326,0,0,1,2.362-5.69l.633.633a.943.943,0,0,0,1.333-1.333l-.633-.633a10.326,10.326,0,0,1,5.69-2.362v.9a.943.943,0,0,0,1.886,0v-.9A10.518,10.518,0,0,1,79,64.311l-.612.612a.943.943,0,1,0,1.333,1.333l.617-.617a10.26,10.26,0,0,1,2.377,5.675h-.9a.943.943,0,1,0,0,1.886h.9A10.467,10.467,0,0,1,80.278,78.944Z" transform="translate(-60 -60)"/></g></svg>